<?xml version="1.0" encoding="UTF-8"?>
<svg width="60" height="60" viewBox="0 0 24 24" fill="none" xmlns="http://www.w3.org/2000/svg">
  <path d="M12 22C17.5228 22 22 17.5228 22 12C22 6.47715 17.5228 2 12 2C6.47715 2 2 6.47715 2 12C2 17.5228 6.47715 22 12 22Z" stroke="currentColor" strokeWidth="2" />
  <path d="M9 9C9 7.89543 9.89543 7 11 7H12C13.1046 7 14 7.89543 14 9C14 9.74028 13.5978 10.3866 13 10.7324V11C13 11.5523 12.5523 12 12 12V12" stroke="currentColor" strokeWidth="2" strokeLinecap="round" />
  <path d="M12 16V16.01" stroke="currentColor" strokeWidth="2" strokeLinecap="round" />
</svg> 